<?xml version="1.0" standalone="no"?>
<!DOCTYPE svg PUBLIC "-//W3C//DTD SVG 1.1//EN" "http://www.w3.org/Graphics/SVG/1.1/DTD/svg11.dtd" >
<svg xmlns="http://www.w3.org/2000/svg">
<metadata>
This is a custom SVG webfont generated by Font Squirrel.
Copyright   :  2000 2004 Adobe Systems Incorporated All Rights Reserved US Patent D454582
Designer    : Robert Slimbach and Carol Twombly
Foundry URL : httpwwwadobecomtype
</metadata>
<defs>
<font id="MyriadProBold" horiz-adv-x="1136" >
<font-face units-per-em="2048" ascent="1536" descent="-512" />
<missing-glyph horiz-adv-x="413" />
<glyph unicode=" "  horiz-adv-x="413" />
<glyph unicode="&#x09;" horiz-adv-x="413" />
<glyph unicode="&#xa0;" horiz-adv-x="413" />
<glyph unicode="!" horiz-adv-x="548" d="M90 164q0 82 51.5 134t132.5 52q80 0 130.5 -52t52.5 -134q0 -82 -50.5 -134.5t-132.5 -52.5h-2q-80 0 -131 53.5t-51 133.5zM111 1380h325l-45 -927h-233z" />
<glyph unicode="&#x22;" horiz-adv-x="813" d="M72 1417h276l-47 -555h-182zM465 1417h276l-47 -555h-182z" />
<glyph unicode="#" horiz-adv-x="1126" d="M76 367v188h198l33 229h-174v191h203l51 356h182l-51 -356h187l53 356h182l-53 -356h164v-191h-193l-33 -229h170v-188h-200l-52 -367h-184l51 367h-186l-51 -367h-185l54 367h-166zM457 555h186l33 229h-187z" />
<glyph unicode="$" d="M113 104l61 240q164 -90 340 -90q90 0 143.5 34t53.5 93q0 57 -51.5 98t-165.5 80q-180 59 -274.5 147.5t-94.5 227.5q0 137 92 234.5t254 129.5v195h201v-180q174 -8 297 -68l-60 -231q-164 70 -295 69q-92 0 -134 -32.5t-42 -81.5t55.5 -87t190.5 -89 q182 -63 262 -153.5t80 -229.5q0 -141 -96 -245t-268 -134v-209h-201v194q-213 10 -348 88z" />
<glyph unicode="%" horiz-adv-x="1802" d="M55 936q0 182 102.5 300t270.5 118h2q166 0 261 -110.5t95 -285.5q0 -199 -107.5 -312.5t-260.5 -113.5q-156 0 -259.5 111t-103.5 293zM287 942q0 -109 35.5 -174.5t101.5 -65.5q131 0 131 242q0 240 -133 240h-2q-66 0 -99.5 -68t-33.5 -174zM432 -23l766 1375h166 l-764 -1375h-168zM1014 383q0 182 102.5 300t269.5 118h3q166 0 261 -110.5t95 -284.5q0 -199 -107.5 -311.5t-261.5 -112.5q-156 0 -258 109.5t-104 291.5zM1247 391q-2 -106 34 -172.5t101 -66.5q131 0 131 239.5t-131 239.5h-2q-66 0 -99.5 -67t-33.5 -173z" />
<glyph unicode="&#x26;" horiz-adv-x="1388" d="M63 369q0 260 263 395v8q-104 115 -105 266q0 143 109.5 254t304.5 111q164 0 269.5 -89t105.5 -235q0 -217 -273 -354l-2 -8q23 -27 108 -122t124 -136q86 135 116 336h279q-59 -334 -229 -525q154 -174 243 -270h-362q-57 61 -90 98q-156 -121 -379 -121 q-233 0 -357.5 116t-124.5 276zM358 420q0 -90 63.5 -153.5t166.5 -63.5h2q115 0 188 69q-102 102 -311 338q-109 -77 -109 -190zM500 1067q0 -94 94 -199q80 55 115.5 100.5t35.5 102.5q0 55 -31.5 96t-88.5 41h-2q-55 0 -89 -42t-34 -99z" />
<glyph unicode="'" horiz-adv-x="419" d="M72 1417h276l-47 -555h-182z" />
<glyph unicode="(" horiz-adv-x="643" d="M123 588q2 494 233 827h217q-207 -334 -206 -829q0 -479 206 -824h-217q-233 334 -233 826z" />
<glyph unicode=")" horiz-adv-x="643" d="M72 -238q207 346 207 827.5t-207 825.5h217q233 -340 233 -825q-2 -487 -233 -828h-217z" />
<glyph unicode="*" horiz-adv-x="929" d="M61 893v207l318 -64l2 4l-217 258l182 105l115 -313h4l117 313l180 -103l-221 -260l2 -6l325 66v-207l-327 57l-2 -6l223 -252l-182 -106l-117 317l-4 -2l-119 -315l-176 106l219 256v4z" />
<glyph unicode="+" horiz-adv-x="1220" d="M82 451v192h428v447h201v-447h428v-192h-428v-451h-201v451h-428z" />
<glyph unicode="," horiz-adv-x="532" d="M4 -244q104 299 148 582l317 20q-113 -346 -258 -583z" />
<glyph unicode="-" horiz-adv-x="659" d="M61 434v209h537v-209h-537z" />
<glyph unicode="." horiz-adv-x="532" d="M102 166q0 84 51.5 137t133.5 53t132 -53t50 -137q0 -82 -51 -135.5t-133 -53.5h-2q-78 0 -129.5 53.5t-51.5 135.5z" />
<glyph unicode="/" horiz-adv-x="677" d="M33 -82l438 1485h207l-438 -1485h-207z" />
<glyph unicode="0" d="M66 664q0 305 130 497.5t377 192.5q104 0 188.5 -36t140.5 -98.5t94 -150.5t55.5 -186.5t17.5 -210.5q0 -319 -129 -507t-377 -188q-246 0 -370.5 193t-126.5 494zM379 664q-2 -451 192 -451q186 0 187 455q0 451 -189 450q-90 0 -141 -114.5t-49 -339.5z" />
<glyph unicode="1" d="M174 1167l352 164h258v-1331h-301v1055h-4l-254 -121z" />
<glyph unicode="2" d="M86 0v188l172 156q238 211 336 333t100 232q0 86 -54 140.5t-165 54.5q-139 0 -285 -111l-88 224q182 137 437 137q221 0 344 -116t123 -302q0 -154 -92.5 -288t-262.5 -286l-123 -102v-4h502v-256h-944z" />
<glyph unicode="3" d="M78 72l63 233q158 -82 310 -82q117 0 180 50.5t63 127.5q0 92 -77.5 141.5t-190.5 49.5h-127v223h121q94 2 165.5 39t71.5 115q0 61 -51 100t-145 39q-143 0 -279 -80l-63 225q66 41 177.5 71t233.5 30q207 0 325 -94.5t118 -237.5q0 -223 -244 -309v-4q125 -23 207 -110 t82 -214q0 -180 -147.5 -294t-397.5 -114q-245 1 -395 95z" />
<glyph unicode="4" d="M47 317v203l504 811h381v-780h160v-234h-160v-317h-295v317h-590zM338 551h299v295q0 104 10 248h-8q-10 -18 -53 -108.5t-70 -139.5l-178 -291v-4z" />
<glyph unicode="5" d="M86 53l55 234q135 -66 301 -66q109 0 188 52.5t79 150.5q0 221 -375 221q-96 0 -180 -12l88 698h733v-256h-516l-29 -205q29 4 86 4q215 0 350 -96q162 -109 162 -334q0 -195 -155.5 -331t-415.5 -136q-228 0 -371 76z" />
<glyph unicode="6" d="M61 559q0 373 236 592q199 180 514 197q76 6 125 2v-240q-72 0 -121 -4q-195 -16 -300 -103.5t-134 -216.5h6q102 106 283 107q174 0 292.5 -117t118.5 -317.5t-139 -341t-352 -140.5q-254 0 -391.5 165t-137.5 417zM371 475q4 -115 59 -191.5t156 -76.5h2q80 0 129 66.5 t49 168.5q0 98 -51 164t-148 66q-61 0 -110 -33t-74 -86q-12 -25 -12 -78z" />
<glyph unicode="7" d="M100 1075v256h940v-196l-548 -1135h-330l549 1071v4h-611z" />
<glyph unicode="8" d="M66 348q0 229 237 334v6q-193 98 -192 291q0 166 133 270.5t336 104.5q217 0 328.5 -102.5t111.5 -239.5q0 -90 -49 -168t-144 -125v-6q106 -41 175 -126t69 -206q0 -182 -140 -293t-372 -111q-238 0 -365.5 110.5t-127.5 260.5zM383 379q-2 -76 51 -131t137 -55 q82 0 132.5 47t50.5 118q0 164 -209 220q-76 -20 -119 -73.5t-43 -125.5zM403 989q0 -123 189 -180q57 16 96 62.5t39 107.5q0 68 -41 116t-121 48q-76 0 -119 -44t-43 -110z" />
<glyph unicode="9" d="M61 874q0 199 142.5 339.5t359.5 140.5q246 0 375 -163t129 -411q0 -399 -233 -612q-193 -174 -508 -186q-61 -4 -142 0v243q53 -6 135 0q158 10 263 82q129 90 168 246l-7 2q-92 -96 -266 -96t-295 113.5t-121 301.5zM373 893q0 -92 49 -152.5t139 -60.5q119 0 172 88 q16 29 17 78q0 119 -48.5 199.5t-146.5 80.5h-2q-80 0 -131 -65.5t-49 -167.5z" />
<glyph unicode=":" horiz-adv-x="532" d="M102 164q0 84 51.5 136t133.5 52t131 -52t51 -136q0 -80 -51 -133.5t-133 -53.5h-2q-78 0 -129.5 53.5t-51.5 133.5zM102 825q0 84 51.5 136.5t133.5 52.5t131 -52.5t51 -136.5q0 -80 -51 -133t-133 -53h-2q-78 0 -129.5 53t-51.5 133z" />
<glyph unicode=";" horiz-adv-x="532" d="M4 -244q102 293 150 582l313 20q-113 -346 -258 -583zM115 825q0 84 50 136.5t132 52.5t131 -52.5t51 -136.5q0 -82 -50 -134t-132 -52h-2q-80 0 -131 53t-49 133z" />
<glyph unicode="&#x3c;" horiz-adv-x="1220" d="M119 457v176l983 457v-218l-744 -325v-4l744 -326v-217z" />
<glyph unicode="=" horiz-adv-x="1220" d="M82 242v190h1057v-190h-1057zM82 666v190h1057v-190h-1057z" />
<glyph unicode="&#x3e;" horiz-adv-x="1220" d="M119 0v217l760 326v4l-760 325v218l983 -451v-188z" />
<glyph unicode="?" horiz-adv-x="911" d="M98 1321q147 84 342 84q193 0 293.5 -91t100.5 -229q0 -72 -32 -142.5t-59.5 -105t-83.5 -96.5q-106 -119 -104 -256v-36h-272l-2 53q-10 166 120 319q41 51 61.5 78t39 66t18.5 71q0 117 -149 123q-115 0 -203 -61zM229 164q0 82 51.5 134t131.5 52q82 0 132 -51 t52 -135q0 -80 -51 -133.5t-133 -53.5h-2q-80 0 -130.5 53.5t-50.5 133.5z" />
<glyph unicode="@" horiz-adv-x="1576" d="M104 432q0 324 214 552t552 228q270 0 444.5 -166.5t174.5 -424.5q0 -221 -109.5 -354.5t-279.5 -133.5q-162 0 -176 158h-4q-96 -158 -265 -158q-102 0 -165.5 71.5t-63.5 194.5q0 195 133 336.5t346 141.5q152 0 244 -52l-62 -379q-31 -176 52 -178q74 -2 136 90.5 t62 255.5q0 207 -129 340t-360 133q-244 0 -416 -176t-172 -460q0 -252 145.5 -394.5t378.5 -142.5q170 0 297 63l37 -116q-158 -74 -375 -74q-266 0 -452.5 177t-186.5 468zM631 424q0 -127 102 -127q57 0 108.5 63.5t65.5 151.5l29 195q-33 8 -64 8q-100 0 -170.5 -86 t-70.5 -205z" />
<glyph unicode="A" horiz-adv-x="1343" d="M35 0l422 1380h409l428 -1380h-336l-106 354h-395l-99 -354h-323zM502 588h305l-86 293q-18 61 -70 266h-4q-6 -27 -28.5 -124t-34.5 -142z" />
<glyph unicode="B" horiz-adv-x="1236" d="M135 6v1356q143 29 404 29q276 0 407 -78q166 -88 166 -271q0 -96 -57.5 -175t-169.5 -119v-5q123 -33 198.5 -122t75.5 -218q0 -176 -143 -292q-158 -125 -543 -125q-199 0 -338 20zM444 221q31 -4 121 -4q117 0 191.5 49t74.5 150q0 98 -77.5 146t-202.5 48h-107v-389z M444 834h103q121 0 186.5 46t65.5 124q0 160 -221 159q-80 0 -134 -8v-321z" />
<glyph unicode="C" horiz-adv-x="1218" d="M72 670q0 342 214 537.5t539 195.5q221 0 340 -62l-63 -247q-123 51 -262 51q-195 0 -318 -118t-123 -339q0 -209 118 -329.5t325 -120.5q147 0 260 45l47 -244q-123 -61 -354 -62q-346 0 -534.5 193t-188.5 500z" />
<glyph unicode="D" horiz-adv-x="1425" d="M135 6v1356q178 29 422 29q369 0 565 -148q233 -174 234 -520q0 -365 -230 -559q-215 -178 -637 -178q-198 0 -354 20zM449 236q27 -6 108 -7h7q214 0 336 120q124 122 124 364q2 211 -113.5 324.5t-320.5 113.5q-88 0 -141 -12v-903z" />
<glyph unicode="E" horiz-adv-x="1093" d="M135 0v1380h852v-256h-538v-286h507v-254h-507v-328h567v-256h-881z" />
<glyph unicode="F" horiz-adv-x="1079" d="M135 0v1380h844v-256h-530v-315h495v-254h-495v-555h-314z" />
<glyph unicode="G" horiz-adv-x="1396" d="M72 674q2 336 221 528.5t567 192.5q244 0 383 -68l-65 -250q-137 59 -322 60q-203 0 -330 -115t-127 -332q0 -211 120 -331.5t315 -120.5q113 0 153 20v289h-213v244h514v-728q-229 -78 -461 -77q-369 0 -561 186q-195 181 -194 489v13z" />
<glyph unicode="H" horiz-adv-x="1411" d="M135 0v1380h314v-530h514v530h311v-1380h-311v578h-514v-578h-314z" />
<glyph unicode="I" horiz-adv-x="583" d="M135 0v1380h314v-1380h-314z" />
<glyph unicode="J" horiz-adv-x="841" d="M-2 10l35 252q74 -25 160 -24q106 0 159.5 60t53.5 214v868h311v-872q0 -283 -126 -407t-366 -124q-129 0 -227 33z" />
<glyph unicode="K" horiz-adv-x="1257" d="M135 0v1380h309v-610h7q6 10 94 152l313 458h383l-457 -587l482 -793h-365l-338 596l-119 -145v-451h-309z" />
<glyph unicode="L" horiz-adv-x="1046" d="M135 0v1380h314v-1118h548v-262h-862z" />
<glyph unicode="M" horiz-adv-x="1732" d="M104 0l89 1380h415l135 -460q76 -279 117 -494h6q70 287 131 496l148 458h407l76 -1380h-305l-20 528q-12 332 -13 568h-6q-63 -262 -154 -535l-167 -538h-244l-148 532q-78 287 -125 541h-4q-2 -25 -10 -247t-14 -325l-25 -524h-289z" />
<glyph unicode="N" horiz-adv-x="1413" d="M135 0v1380h365l286 -506q129 -229 226 -473h6q-27 238 -27 578v401h287v-1380h-328l-295 532q-145 262 -239 488l-6 -2q12 -272 12 -602v-416h-287z" />
<glyph unicode="O" horiz-adv-x="1468" d="M72 680q0 315 185 519t486 204q307 0 481.5 -199.5t174.5 -498.5q0 -336 -186.5 -532t-491.5 -196q-299 0 -474 200t-175 503zM401 686q0 -205 91.5 -333t245 -128t242.5 131t89 338q0 195 -89 328t-244.5 133t-245 -131t-89.5 -338z" />
<glyph unicode="P" horiz-adv-x="1189" d="M135 0v1362q168 29 422 29q283 0 422 -111q147 -117 147 -319q0 -207 -127 -328q-154 -145 -448 -146q-63 0 -107 7v-494h-309zM444 735q35 -8 105 -8q125 0 196.5 59.5t71.5 165.5q0 96 -63.5 149.5t-180.5 53.5q-84 0 -129 -12v-408z" />
<glyph unicode="Q" horiz-adv-x="1468" d="M72 678q0 315 185 520t488 205q305 0 479.5 -199.5t174.5 -496.5q0 -225 -92.5 -388t-235.5 -229v-8q106 -31 334 -78l-90 -242q-272 80 -545 195q-43 16 -96 20q-252 16 -427 199t-175 502zM401 679q0 -195 89 -323q91 -131 245 -131h2q154 0 243 131t89 338 q0 197 -89 329t-243 132q-156 0 -246 -133.5t-90 -342.5z" />
<glyph unicode="R" horiz-adv-x="1214" d="M135 0v1362q176 29 416 29q309 0 446 -109q127 -102 127 -289q0 -123 -72.5 -213t-170.5 -127v-6q127 -51 184 -258q100 -367 113 -389h-320q-33 61 -96 322q-27 127 -76 173t-147 48h-95v-543h-309zM444 768h123q117 0 182.5 53t65.5 146q0 188 -229 192q-86 0 -142 -10 v-381z" />
<glyph unicode="S" horiz-adv-x="1105" d="M82 63l63 259q168 -86 347 -86q106 0 162.5 39.5t56.5 109.5q0 63 -52.5 106.5t-179.5 88.5q-379 131 -379 407q0 180 141.5 298t381.5 118q197 0 352 -70l-70 -252q-135 66 -289 66q-96 0 -148 -38t-52 -95q0 -61 55 -100.5t201 -94.5q184 -68 271 -167t87 -244 q0 -184 -143.5 -307.5t-413.5 -123.5q-113 0 -220.5 25.5t-170.5 60.5z" />
<glyph unicode="T" horiz-adv-x="1122" d="M31 1118v262h1061v-262h-377v-1118h-314v1118h-370z" />
<glyph unicode="U" horiz-adv-x="1396" d="M133 610v770h313v-794q0 -176 64.5 -267.5t185.5 -91.5q254 0 254 359v794h312v-774q0 -313 -149.5 -471t-426.5 -158q-553 0 -553 633z" />
<glyph unicode="V" horiz-adv-x="1302" d="M18 1380h342l168 -583q86 -297 123 -494h6q49 233 125 488l176 589h332l-465 -1380h-364z" />
<glyph unicode="W" horiz-adv-x="1818" d="M31 1380h334l104 -567q29 -160 82 -483h4q27 172 90 485l117 565h332l110 -581q41 -213 74 -463h4q12 96 80 479l113 565h317l-356 -1380h-338l-117 594q-47 244 -66 426h-4q-41 -262 -80 -426l-131 -594h-342z" />
<glyph unicode="X" horiz-adv-x="1255" d="M33 0l399 698l-385 682h359l120 -252q57 -119 105 -229h4q33 90 94 229l117 252h356l-389 -673l410 -707h-361l-125 250q-25 49 -123 248h-4q-16 -47 -106 -248l-115 -250h-356z" />
<glyph unicode="Y" horiz-adv-x="1234" d="M18 1380h357l141 -331q45 -104 107 -265h4q33 94 104 265l139 331h351l-455 -805v-575h-311v565z" />
<glyph unicode="Z" horiz-adv-x="1181" d="M47 0v168l658 946v8h-596v258h1001v-180l-643 -934v-8h653v-258h-1073z" />
<glyph unicode="[" horiz-adv-x="643" d="M139 -229v1634h420v-172h-194v-1290h194v-172h-420z" />
<glyph unicode="\" horiz-adv-x="675" d="M25 1403h206l412 -1485h-205z" />
<glyph unicode="]" horiz-adv-x="643" d="M86 -57h195v1290h-195v172h418v-1634h-418v172z" />
<glyph unicode="^" horiz-adv-x="1220" d="M86 362l430 969h189l430 -969h-224l-299 730h-6l-301 -730h-219z" />
<glyph unicode="_" horiz-adv-x="1024" d="M0 -154h1024v-102h-1024v102z" />
<glyph unicode="`" horiz-adv-x="614" d="M8 1438h287l176 -312h-213z" />
<glyph unicode="a" horiz-adv-x="1081" d="M59 285q0 190 157 287q153 95 420 96h11v14q0 129 -182 129q-156 0 -277 -76l-57 201q158 88 389 88q233 0 337 -119t104 -313v-348q0 -166 14 -244h-281l-18 100h-6q-100 -123 -287 -123q-145 0 -234.5 91.5t-89.5 216.5zM367 315q0 -57 33.5 -87.5t88.5 -30.5 q57 0 101.5 32.5t60.5 81.5q6 25 6 54v108h-14q-276 0 -276 -158z" />
<glyph unicode="b" horiz-adv-x="1224" d="M117 0q8 131 8 299v1155h311v-571h4q98 141 303 141q182 0 299 -139.5t115 -366.5q0 -256 -136 -398.5t-323 -142.5q-203 0 -301 162h-4l-12 -139h-264zM436 426q0 -31 6 -55q16 -63 66.5 -105.5t116.5 -42.5q100 0 157.5 74t57.5 209q0 123 -55.5 200.5t-159.5 77.5 q-63 0 -115.5 -43t-67.5 -110q-6 -29 -6 -58v-147z" />
<glyph unicode="c" horiz-adv-x="923" d="M68 492q0 229 151.5 380.5t421.5 151.5q133 0 238 -39l-50 -231q-70 31 -174 30q-123 0 -196.5 -78.5t-71.5 -201.5q0 -133 78 -207t197 -74q102 0 178 33l37 -231q-106 -47 -279 -48q-244 0 -387 139.5t-143 375.5z" />
<glyph unicode="d" horiz-adv-x="1220" d="M68 499q0 238 129 381q131 144 319 144q190 0 264 -113h4v543h312v-1155q0 -164 8 -299h-277l-14 147h-4q-47 -82 -130 -126t-183 -44q-182 0 -305 142.5t-123 379.5zM383 502q0 -127 58.5 -202t154.5 -75q68 0 117 42t63 108q8 31 8 71v132q0 23 -4 55q-14 66 -63 109.5 t-119 43.5q-102 0 -158.5 -80.5t-56.5 -203.5z" />
<glyph unicode="e" horiz-adv-x="1081" d="M68 489q0 133 51 251t170 201t284 83q225 0 336 -145.5t111 -354.5q0 -66 -10 -123h-645q8 -92 86.5 -141t195.5 -49q147 0 277 41l41 -211q-158 -63 -363 -64q-252 0 -393 137t-141 375zM362 614h369q0 76 -40 139.5t-136 63.5q-88 0 -136.5 -62.5t-56.5 -140.5z" />
<glyph unicode="f" horiz-adv-x="698" d="M29 772v229h131v39q0 221 127 336q106 100 276 101q94 0 166 -21l-12 -239q-47 14 -101 14q-74 0 -109.5 -49t-35.5 -129v-52h201v-229h-199v-772h-313v772h-131z" />
<glyph unicode="g" horiz-adv-x="1198" d="M68 498q0 236 132 381t322 145q186 0 275 -141h4l10 118h270q-8 -127 -8 -296v-560q0 -315 -151 -450q-143 -123 -408 -123q-223 0 -360 78l61 235q131 -76 291 -75q117 0 188.5 65.5t71.5 198.5v65h-4q-92 -131 -270 -131q-186 0 -305 136.5t-119 353.5zM383 504 q0 -117 54.5 -191.5t150.5 -74.5q59 0 103 35.5t61 91.5q10 29 10 81v148q0 33 -6 57q-16 63 -60.5 100t-107.5 37q-88 0 -146.5 -75.5t-58.5 -208.5z" />
<glyph unicode="h" horiz-adv-x="1200" d="M125 0v1454h311v-571h4q51 66 123 102q74 39 162 39q158 0 254 -110.5t96 -327.5v-586h-311v551q0 221 -162 221q-111 0 -156 -108q-10 -25 -10 -70v-594h-311z" />
<glyph unicode="i" horiz-adv-x="561" d="M117 1280q-2 68 44 113t119.5 45t118.5 -44t47 -114q0 -66 -46 -111t-121 -45q-72 0 -118 45t-44 111zM125 0v1001h311v-1001h-311z" />
<glyph unicode="j" horiz-adv-x="595" d="M-82 -197q131 10 184 66q61 63 62 326v806h313v-880q0 -307 -141 -438q-131 -123 -387 -123zM156 1280q0 70 45 114t121 44q74 0 117.5 -44t45.5 -114q0 -66 -46 -111t-122 -45q-72 0 -116.5 45t-44.5 111z" />
<glyph unicode="k" horiz-adv-x="1110" d="M125 0v1454h311v-874h4q31 57 72 120l203 301h375l-359 -405l410 -596h-383l-242 412l-80 -99v-313h-311z" />
<glyph unicode="l" horiz-adv-x="563" d="M125 0v1454h311v-1454h-311z" />
<glyph unicode="m" horiz-adv-x="1761" d="M117 1001h262l14 -135h6q106 158 303 158q96 0 169 -45t106 -125h4q51 74 129 121q82 49 190 49q152 0 245 -109.5t93 -324.5v-590h-303v545q0 229 -147 229q-51 0 -89 -30.5t-55 -77.5q-12 -35 -12 -80v-586h-303v561q0 213 -143 213q-104 0 -146 -112q-12 -29 -12 -78 v-584h-303v682q0 143 -8 319z" />
<glyph unicode="n" horiz-adv-x="1200" d="M117 1001h270l14 -137h7q39 61 118.5 110.5t190.5 49.5q162 0 260 -108.5t98 -321.5v-594h-311v555q0 217 -158 217q-59 0 -99 -33.5t-58 -83.5q-12 -31 -13 -77v-578h-311v682q0 143 -8 319z" />
<glyph unicode="o" horiz-adv-x="1181" d="M68 494q0 242 146 386t388 144q229 0 370.5 -142.5t141.5 -369.5q0 -258 -154.5 -396.5t-373.5 -138.5q-225 0 -371.5 139.5t-146.5 377.5zM389 502q0 -133 54.5 -217t150.5 -84q90 0 144.5 83t54.5 218q0 125 -50.5 213t-148.5 88q-104 0 -154.5 -88t-50.5 -213z" />
<glyph unicode="p" horiz-adv-x="1224" d="M117 1001h270l14 -139h5q113 162 333 162q172 0 294 -139.5t122 -370.5q0 -256 -135 -396.5t-320 -140.5q-180 0 -260 115h-4v-498h-311v1072q0 151 -8 335zM436 430q0 -37 6 -65q16 -63 66.5 -105.5t116.5 -42.5q100 0 157.5 77t57.5 206q0 125 -55.5 202.5t-155.5 77.5 q-66 0 -119 -44t-68 -113q-6 -25 -6 -56v-137z" />
<glyph unicode="q" horiz-adv-x="1218" d="M68 487q0 252 133 394.5t309 142.5q195 0 278 -139h5l8 116h301q-6 -289 -6 -301v-1106h-312v531h-4q-100 -147 -297 -148q-170 0 -292.5 139.5t-122.5 370.5zM385 500q0 -127 56.5 -202t154.5 -75q66 0 115 40t65 102q8 27 8 67v150q0 27 -6 51q-12 63 -61 106t-117 43 q-104 0 -159.5 -77.5t-55.5 -204.5z" />
<glyph unicode="r" horiz-adv-x="778" d="M117 1001h268l10 -184h8q35 102 113 154.5t158 52.5q43 0 65 -4v-295q-37 10 -84 10q-86 0 -141 -42t-72 -115q-6 -31 -6 -70v-508h-311v672q0 157 -8 329z" />
<glyph unicode="s" horiz-adv-x="888" d="M68 49l55 223q47 -29 125 -52t143 -23q133 0 133 84q0 39 -29.5 62.5t-117.5 51.5q-147 49 -217 128t-68 171q0 143 112.5 236.5t295.5 93.5q168 0 282 -57l-55 -215q-104 57 -217 57q-119 0 -119 -82q0 -35 34 -58.5t128 -56.5q141 -49 205.5 -122.5t66.5 -186.5 q0 -145 -112.5 -235.5t-321.5 -90.5q-190 0 -323 72z" />
<glyph unicode="t" horiz-adv-x="751" d="M35 772v229h133v189l305 84v-273h223v-229h-223v-362q0 -94 26.5 -135.5t96.5 -41.5q51 0 92 9l2 -236q-72 -29 -203 -29q-150 0 -233 89q-86 90 -86 296v410h-133z" />
<glyph unicode="u" horiz-adv-x="1193" d="M121 414v587h313v-538q0 -233 156 -234q111 0 155 109q10 23 11 68v595h313v-679q0 -154 8 -322h-270l-14 141h-7q-104 -164 -313 -164q-162 0 -257 108t-95 329z" />
<glyph unicode="v" horiz-adv-x="1085" d="M18 1001h338l136 -464q35 -121 57 -244h6q27 137 55 244l129 464h328l-373 -1001h-311z" />
<glyph unicode="w" horiz-adv-x="1554" d="M23 1001h317l80 -409q35 -178 57 -330h4q20 115 74 328l107 411h245l101 -399q53 -225 73 -340h4q16 137 58 342l86 397h305l-307 -1001h-293l-94 352q-37 145 -64 312h-4q-25 -172 -65 -312l-101 -352h-293z" />
<glyph unicode="x" horiz-adv-x="1062" d="M6 0l340 510l-332 491h348l99 -165q14 -25 40.5 -75t41.5 -75h4q63 129 78 154l88 161h338l-330 -477l334 -524h-353l-100 180q-29 49 -78 152h-6l-76 -152l-94 -180h-342z" />
<glyph unicode="y" horiz-adv-x="1071" d="M12 1001h346l150 -491q37 -137 49 -186h6q8 31 23.5 98t21.5 88l123 491h334l-234 -659q-102 -287 -183 -432.5t-169 -224.5q-133 -115 -301 -138l-65 265q63 10 135 53q78 41 129 125q16 23 16 45t-14 51z" />
<glyph unicode="z" horiz-adv-x="960" d="M45 0v178l315 395q66 78 160 179v4h-440v245h819v-186l-301 -379q-119 -141 -164 -184v-4h481v-248h-870z" />
<glyph unicode="{" horiz-adv-x="643" d="M61 510v158q94 2 125 41t31 98q0 49 -12 160q-10 92 -10 161q0 276 311 277h72v-174h-37q-125 -2 -125 -146q0 -12 10 -114q10 -106 10 -142q2 -111 -41 -164t-133 -73v-4q90 -20 133 -73.5t41 -166.5q0 -37 -10 -143q-10 -102 -10 -115q0 -145 125 -147h37v-172h-74 q-309 0 -309 278q0 70 10 162q12 111 12 160q0 37 -8 62.5t-45 50t-103 26.5z" />
<glyph unicode="|" horiz-adv-x="579" d="M180 -512v2048h217v-2048h-217z" />
<glyph unicode="}" horiz-adv-x="643" d="M66 -57h36q125 2 125 147q0 47 -10 115q-10 106 -10 143q-2 113 42 166t134 74v4q-90 18 -134 72.5t-42 164.5q0 35 10 142q10 68 10 114q0 143 -125 146h-36v174h71q313 0 314 -277q0 -51 -12.5 -161.5t-12.5 -159.5q0 -59 30.5 -98t125.5 -41v-158q-156 -4 -156 -139 q0 -49 12.5 -160t12.5 -162q0 -279 -312 -278h-73v172z" />
<glyph unicode="~" horiz-adv-x="1220" d="M88 393q-2 197 75 290t210 93q70 0 130 -21.5t156 -76.5q147 -80 195 -80q76 0 84 166h195q8 -205 -68 -296t-205 -91q-111 0 -287 98q-145 86 -194 86q-86 0 -96 -168h-195z" />
<glyph unicode="&#xa1;" horiz-adv-x="548" d="M92 825q0 82 51.5 134.5t130.5 52.5h2q80 0 130.5 -52.5t50.5 -134.5t-50.5 -134t-132 -52t-132 52t-50.5 134zM113 -391l45 926h235l45 -926h-325z" />
<glyph unicode="&#xa2;" d="M154 670q0 190 110.5 331.5t306.5 180.5v196h203v-186q109 -6 195 -41l-49 -229q-74 37 -183 36q-121 0 -192.5 -75.5t-71.5 -200.5q0 -133 76 -203.5t190 -70.5q113 0 203 34l37 -223q-82 -41 -207 -47v-197h-201v201q-190 31 -303 158q-114 131 -114 336z" />
<glyph unicode="&#xa3;" d="M104 0v166q90 37 160 120t70 181q0 39 -6 82h-201v211h164q-16 82 -17 166q0 193 128 310.5t335 117.5q152 0 242 -49l-51 -236q-63 37 -172 37q-100 0 -145.5 -54.5t-45.5 -138.5q0 -78 19 -153h280v-211h-254q4 -82 -18 -146q-31 -84 -100 -145v-4h546v-254h-934z" />
<glyph unicode="&#xa4;" d="M37 1083l137 144l158 -176q94 76 237 75h2q137 0 236 -71l158 170l135 -140l-178 -159q66 -113 65 -238q0 -147 -69 -248l172 -166l-134 -135l-151 178q-96 -80 -240 -79q-147 0 -237 77l-148 -176l-133 135l170 162q-74 106 -74 246q0 133 72 244zM377 684 q0 -113 58.5 -176.5t129.5 -63.5q76 0 133.5 62.5t57.5 179.5q0 100 -54.5 166t-136.5 66h-2q-80 0 -133 -65t-53 -169z" />
<glyph unicode="&#xa5;" d="M4 1331h334l143 -327q18 -39 86 -224h4q2 6 35 92t53 134l146 325h328l-351 -581h244v-146h-321v-131h321v-145h-321v-328h-293v328h-318v145h318v131h-318v146h244z" />
<glyph unicode="&#xa6;" horiz-adv-x="579" d="M180 356h217v-716h-217v716zM180 664v716h217v-716h-217z" />
<glyph unicode="&#xa7;" horiz-adv-x="1148" d="M92 647q0 70 44 139.5t126 110.5q-35 27 -58.5 79t-23.5 107q0 150 126 234t320.5 84t323.5 -62l-49 -188q-119 57 -268 57q-88 0 -136 -26.5t-48 -71.5t51 -77t168 -66q193 -59 291 -136t98 -223q0 -156 -150 -250q35 -27 62.5 -76t27.5 -112q0 -88 -43 -155.5 t-112.5 -103.5t-144 -52.5t-152.5 -16.5q-240 0 -383 90l59 189q147 -86 309 -86q84 0 135.5 27.5t51.5 78.5q0 49 -48 82t-169 72q-197 59 -302.5 136t-105.5 216zM334 700q0 -96 178 -157q35 -12 90 -30.5t93 -33t59 -24.5q59 39 59 106q0 92 -141 148q-29 10 -88.5 31.5 t-104.5 39t-71 29.5q-74 -39 -74 -107v-2z" />
<glyph unicode="&#xa8;" horiz-adv-x="614" d="M-53 1284q0 61 43 103.5t104 42.5q59 0 99 -41t40 -105q0 -59 -39.5 -101t-99.5 -42h-2q-61 0 -103 42t-42 101zM379 1284q0 63 42 104.5t103 41.5q59 0 100.5 -41t41.5 -105q0 -59 -40 -101t-102 -42h-4q-59 0 -100 42t-41 101z" />
<glyph unicode="&#xa9;" horiz-adv-x="1386" d="M66 696q0 262 183 446.5t447 184.5h2q260 0 441.5 -184.5t181.5 -446.5q0 -264 -181.5 -449.5t-443.5 -185.5q-264 0 -447 185.5t-183 449.5zM199 694q0 -215 144 -365.5t351 -150.5q205 -2 349.5 149.5t144.5 366.5t-144.5 365.5t-349.5 150.5h-2q-205 0 -349 -150.5 t-144 -365.5zM346 684q0 170 118 275.5t281 105.5q72 0 138.5 -17.5t87.5 -39.5l-31 -109q-78 45 -195 45q-119 0 -186 -67.5t-67 -186.5q0 -113 69.5 -184.5t181.5 -71.5q129 0 205 51l31 -106q-100 -66 -254 -66q-176 0 -277.5 104.5t-101.5 266.5z" />
<glyph unicode="&#xaa;" horiz-adv-x="774" d="M68 735q0 117 108.5 177.5t294.5 60.5v14q0 14 -7 29.5t-38 32t-80 16.5q-109 0 -188 -51l-41 131q109 66 270 65q156 0 228.5 -80.5t72.5 -205.5v-219q0 -111 10 -160h-192l-14 67h-5q-80 -80 -202 -77q-98 0 -157.5 57t-59.5 143zM276 752q0 -33 26 -55.5t65 -22.5 q33 0 61.5 17.5t40.5 43.5q10 25 10 45v72q-203 0 -203 -100z" />
<glyph unicode="&#xab;" horiz-adv-x="952" d="M53 516l238 391h217l-244 -391l244 -391h-217zM451 516l237 391h217l-243 -391l243 -391h-217z" />
<glyph unicode="&#xac;" horiz-adv-x="1220" d="M82 674v190h1057v-647h-199v457h-858z" />
<glyph unicode="&#xad;" horiz-adv-x="595" d="M61 434v209h537v-209h-537z" />
<glyph unicode="&#xae;" horiz-adv-x="940" d="M106 1051q0 145 106.5 248.5t258.5 103.5h2q150 0 255.5 -103.5t105.5 -248.5q0 -147 -105.5 -251t-257.5 -104t-258.5 104t-106.5 251zM215 1049q0 -111 73.5 -188t182.5 -77q109 -2 182.5 76t73.5 191q0 111 -73.5 187.5t-184.5 76.5h-2q-106 0 -179 -76.5t-73 -189.5z M326 883v325q68 12 143 13q92 0 131 -27q35 -25 35 -72q0 -53 -76 -73v-5q53 -14 68 -83q12 -57 22 -78h-112q-10 12 -23 69q-10 49 -55 49h-33v-118h-100zM430 1069h29q61 0 61 39q0 41 -57 41q-6 0 -17.5 -1t-15.5 -1v-78z" />
<glyph unicode="&#xaf;" horiz-adv-x="614" d="M51 1192v170h514v-170h-514z" />
<glyph unicode="&#xb0;" horiz-adv-x="729" d="M55 1100q-2 125 89.5 214t222.5 89h2q133 0 221 -87t88 -210q0 -131 -92 -217t-221 -86q-133 0 -221.5 86t-88.5 211zM219 1099.5q0 -65.5 42 -110.5t105.5 -45t104.5 45t41 113q0 63 -39 111.5t-106 48.5h-2q-63 0 -104.5 -48.5t-41.5 -114z" />
<glyph unicode="&#xb1;" horiz-adv-x="1220" d="M82 0v190h1057v-190h-1057zM82 641v190h428v355h201v-355h428v-190h-428v-360h-201v360h-428z" />
<glyph unicode="&#xb2;" horiz-adv-x="720" d="M31 907v115l125 115q102 90 137 122.5t68.5 81t33.5 91.5t-32.5 70.5t-88.5 27.5q-92 0 -176 -57l-61 155q121 88 297 88q150 0 231.5 -69.5t81.5 -178.5q0 -68 -38 -133t-77.5 -103t-119.5 -104l-50 -38v-5h300v-178h-631z" />
<glyph unicode="&#xb3;" horiz-adv-x="710" d="M18 954l48 160q102 -53 200 -53q66 0 107 26.5t39 65.5q0 49 -51.5 75.5t-124.5 26.5h-62v140h57q59 0 108.5 21.5t49.5 64.5q0 72 -108 71q-90 0 -185 -49l-45 148q106 66 287 65q141 0 219 -57t78 -146q0 -63 -47 -110t-123 -70v-4q86 -10 142.5 -61t56.5 -127 q0 -109 -100.5 -176.5t-268.5 -67.5q-173 0 -277 57z" />
<glyph unicode="&#xb4;" horiz-adv-x="614" d="M154 1126l176 312h288l-249 -312h-215z" />
<glyph unicode="&#xb5;" horiz-adv-x="1198" d="M125 -43v1044h311v-559q0 -215 152 -215q55 0 100 34t62 77q10 31 10 68v595h311v-675q0 -63 20.5 -88t65.5 -27l-18 -215q-37 -18 -111 -19q-180 0 -227 160h-6q-29 -61 -93.5 -106t-154.5 -45q-88 0 -141 59v-86q0 -258 22 -365h-276q-27 72 -27 363z" />
<glyph unicode="&#xb6;" horiz-adv-x="1110" d="M63 924q0 90 27 165.5t89.5 146.5t188.5 112t302 41q205 0 293 -23v-1462h-199v1292h-146v-1292h-196v637h-14q-109 0 -226 103.5t-119 279.5z" />
<glyph unicode="&#xb7;" horiz-adv-x="532" d="M82 530.5q0 81.5 52 136t132 54.5q82 0 132.5 -53.5t52.5 -137.5q0 -84 -51.5 -136t-133.5 -52h-2q-80 0 -131 53.5t-51 135z" />
<glyph unicode="&#xb8;" horiz-adv-x="614" d="M94 -377l41 117q63 -35 113 -35q31 0 52.5 13.5t18.5 39.5q0 61 -157 74l86 176h168l-56 -98q61 -6 104.5 -47t43.5 -101q0 -94 -69.5 -137t-178.5 -43q-98 0 -166 41z" />
<glyph unicode="&#xb9;" horiz-adv-x="614" d="M43 1608l229 98h209v-799h-239v604h-4l-162 -71z" />
<glyph unicode="&#xba;" horiz-adv-x="790" d="M47 866q0 154 98.5 249t251.5 95h2q154 0 247 -93t93 -238q0 -164 -102 -254t-246 -90q-145 0 -244.5 90.5t-99.5 240.5zM268 870q0 -78 35 -131t92 -53q59 0 92 52.5t33 135.5q0 72 -33.5 128.5t-93.5 56.5h-2q-61 0 -92 -58.5t-31 -130.5z" />
<glyph unicode="&#xbb;" horiz-adv-x="952" d="M47 125l244 391l-244 391h213l240 -391l-240 -391h-213zM438 125l246 391l-246 391h215l240 -391l-240 -391h-215z" />
<glyph unicode="&#xbc;" horiz-adv-x="1701" d="M72 1245l229 98h209v-798h-240v604h-2l-164 -72zM354 -23l756 1377h168l-754 -1377h-170zM899 184v129l348 494h275v-471h108v-152h-108v-184h-222v184h-401zM1114 340l6 -4h180v151q0 53 9 152h-6q-47 -94 -74 -133z" />
<glyph unicode="&#xbd;" horiz-adv-x="1701" d="M47 1245l229 98h209v-798h-239v604h-4l-162 -72zM305 -23l756 1377h168l-754 -1377h-170zM993 0v115l125 114q102 90 137 123t69 81t34 91t-33 71t-88 28q-92 0 -176 -58l-64 156q121 88 299 88q147 0 229.5 -69.5t82.5 -178.5q0 -68 -38 -133.5t-77 -103t-119 -103.5 l-49 -39v-4h299v-178h-631z" />
<glyph unicode="&#xbe;" horiz-adv-x="1701" d="M55 592l45 160q102 -53 201 -54q63 0 105.5 26t42.5 67q0 49 -52.5 75.5t-126.5 26.5h-61v139h57q61 0 109.5 21.5t48.5 64.5q0 72 -107 72q-92 0 -186 -49l-45 147q106 66 287 66q143 0 220 -57.5t77 -145.5q0 -63 -46 -110.5t-122 -69.5v-4q86 -10 142 -61.5t56 -127.5 q0 -109 -101 -176t-269 -67q-175 0 -275 57zM420 -23l754 1377h169l-753 -1377h-170zM920 184v129l348 494h272v-471h109v-152h-109v-184h-221v184h-399zM1135 340l4 -4h180v151q0 31 4 84.5t4 67.5h-4q-61 -115 -74 -133z" />
<glyph unicode="&#xbf;" horiz-adv-x="911" d="M86 -96q0 70 28.5 136t54.5 100t79 93q10 10 14 17q104 119 105 256l-2 37h272l2 -54q10 -164 -119 -321q-121 -139 -121 -215q0 -55 38 -87t112 -34q117 0 205 62l67 -226q-143 -84 -342 -84q-193 0 -293 91.5t-100 228.5zM324 825q0 82 51 134.5t133 52.5h2 q80 0 130 -52.5t50 -134.5t-50 -134t-132 -52q-80 0 -131 52t-53 134z" />
<glyph unicode="&#xc0;" horiz-adv-x="1343" d="M35 0l422 1380h409l428 -1380h-336l-106 354h-395l-99 -354h-323zM311 1706h328l174 -248h-250zM502 588h305l-86 293q-18 61 -70 266h-4q-6 -27 -28.5 -124t-34.5 -142z" />
<glyph unicode="&#xc1;" horiz-adv-x="1343" d="M35 0l422 1380h409l428 -1380h-336l-106 354h-395l-99 -354h-323zM502 588h305l-86 293q-18 61 -70 266h-4q-6 -27 -28.5 -124t-34.5 -142zM518 1454l172 252h328l-250 -252h-250z" />
<glyph unicode="&#xc2;" horiz-adv-x="1343" d="M35 0l422 1380h409l428 -1380h-336l-106 354h-395l-99 -354h-323zM350 1454l205 252h233l207 -252h-219l-102 127h-4l-103 -127h-217zM502 588h305l-86 293q-18 61 -70 266h-4q-6 -27 -28.5 -124t-34.5 -142z" />
<glyph unicode="&#xc3;" horiz-adv-x="1343" d="M35 0l422 1380h409l428 -1380h-336l-106 354h-395l-99 -354h-323zM391 1464q-2 127 40 193.5t118 66.5q63 0 131 -41q66 -39 90 -38q27 0 39 19t16 69h142q6 -256 -162 -256q-63 0 -133 39q-74 37 -88 36q-43 0 -49 -88h-144zM502 588h305l-86 293q-18 61 -70 266h-4 q-6 -27 -28.5 -124t-34.5 -142z" />
<glyph unicode="&#xc4;" horiz-adv-x="1343" d="M35 0l422 1380h409l428 -1380h-336l-106 354h-395l-99 -354h-323zM326 1597q0 59 42 100.5t101 41.5q57 0 95 -41t38 -101q0 -57 -39 -98t-96 -41h-2q-57 0 -98 41t-41 98zM502 588h305l-86 293q-18 61 -70 266h-4q-6 -27 -28.5 -124t-34.5 -142zM752 1597 q0 59 39.5 100.5t101.5 41.5q57 0 97 -41t40 -101q0 -57 -40 -98t-97 -41h-2q-59 0 -99 41t-40 98z" />
<glyph unicode="&#xc5;" horiz-adv-x="1343" d="M35 0l422 1380h409l428 -1380h-336l-106 354h-395l-99 -354h-323zM430 1634q0 86 62.5 144.5t173.5 58.5h2q111 0 171 -56.5t60 -144.5q0 -86 -62.5 -142t-171 -56t-172 56t-63.5 140zM502 588h305l-86 293q-18 61 -70 266h-4q-6 -27 -28.5 -124t-34.5 -142zM573 1634 q0 -37 25 -64.5t66 -27.5t65.5 26.5t24.5 67.5t-24.5 69t-65.5 28h-2q-41 0 -65 -29t-24 -70z" />
<glyph unicode="&#xc6;" horiz-adv-x="1777" d="M4 0l590 1380h1051v-256h-568l37 -293h522v-253h-481l41 -322h524v-256h-792l-49 377h-402l-151 -377h-322zM569 627h275l-41 334q-2 20 -25 200h-6q-8 -25 -70 -203z" />
<glyph unicode="&#xc7;" horiz-adv-x="1222" d="M72 670q0 342 214 537.5t539 195.5q221 0 340 -62l-63 -247q-123 51 -262 51q-195 0 -318 -118t-123 -339q0 -209 118 -329.5t325 -120.5q147 0 260 45l47 -244q-113 -57 -326 -59l-39 -70q66 -14 108 -57t42 -111q0 -98 -71.5 -143t-172.5 -45q-106 0 -176 38l41 127 q47 -29 115 -28q74 0 73 51q0 59 -161 76l80 170q-285 37 -437.5 222.5t-152.5 459.5z" />
<glyph unicode="&#xc8;" horiz-adv-x="1093" d="M135 0v1380h852v-256h-538v-286h507v-254h-507v-328h567v-256h-881zM225 1706h328l174 -248h-250z" />
<glyph unicode="&#xc9;" horiz-adv-x="1093" d="M135 0v1380h852v-256h-538v-286h507v-254h-507v-328h567v-256h-881zM420 1454l172 252h328l-250 -252h-250z" />
<glyph unicode="&#xca;" horiz-adv-x="1093" d="M135 0v1380h852v-256h-538v-286h507v-254h-507v-328h567v-256h-881zM250 1454l205 252h233l207 -252h-219l-103 127h-4l-102 -127h-217z" />
<glyph unicode="&#xcb;" horiz-adv-x="1093" d="M135 0v1380h852v-256h-538v-286h507v-254h-507v-328h567v-256h-881zM203 1599q0 59 42 100.5t101 41.5q57 0 95 -41t38 -101q0 -57 -39 -98t-96 -41h-2q-57 0 -98 41t-41 98zM629 1599q0 59 40 100.5t101 41.5q57 0 97 -41t40 -101q0 -57 -40 -98t-97 -41h-2 q-59 0 -99 41t-40 98z" />
<glyph unicode="&#xcc;" horiz-adv-x="583" d="M-57 1706h327l174 -248h-249zM135 0v1380h314v-1380h-314z" />
<glyph unicode="&#xcd;" horiz-adv-x="583" d="M135 0v1380h314v-1380h-314zM139 1454l172 252h328l-250 -252h-250z" />
<glyph unicode="&#xce;" horiz-adv-x="583" d="M-31 1454l205 252h234l206 -252h-219l-102 127h-4l-103 -127h-217zM135 0v1380h314v-1380h-314z" />
<glyph unicode="&#xcf;" horiz-adv-x="583" d="M-61 1599q0 59 42 100.5t101 41.5q57 0 95 -41t38 -101q0 -57 -39 -98t-96 -41h-2q-57 0 -98 41t-41 98zM135 0v1380h314v-1380h-314zM365 1599q0 59 39.5 100.5t101.5 41.5q57 0 97 -41t40 -101q0 -57 -40 -98t-97 -41h-2q-59 0 -99 41t-40 98z" />
<glyph unicode="&#xd0;" horiz-adv-x="1441" d="M6 582v243h146v541q190 31 421 31q373 0 566 -146q231 -172 231 -526q0 -373 -227 -565q-217 -180 -637 -180q-199 0 -354 20v582h-146zM463 229q29 -4 108 -4q221 0 345 122t124 368q0 219 -114.5 329.5t-321.5 110.5q-84 0 -141 -12v-318h274v-243h-274v-353z" />
<glyph unicode="&#xd1;" horiz-adv-x="1413" d="M135 0v1380h365l286 -506q129 -229 226 -473h6q-27 238 -27 578v401h287v-1380h-328l-295 532q-145 262 -239 488l-6 -2q12 -272 12 -602v-416h-287zM424 1464q-2 127 40 193.5t118 66.5q63 0 131 -41q66 -39 90 -38q27 0 39 19t16 69h141q6 -256 -161 -256 q-63 0 -133 39q-74 37 -89 36q-43 0 -49 -88h-143z" />
<glyph unicode="&#xd2;" horiz-adv-x="1468" d="M72 680q0 315 185 519t486 204q307 0 481.5 -199.5t174.5 -498.5q0 -336 -186.5 -532t-491.5 -196q-299 0 -474 200t-175 503zM385 1708h328l174 -248h-250zM401 686q0 -205 91.5 -333t245 -128t242.5 131t89 338q0 195 -89 328t-244.5 133t-245 -131t-89.5 -338z" />
<glyph unicode="&#xd3;" horiz-adv-x="1468" d="M72 680q0 315 185 519t486 204q307 0 481.5 -199.5t174.5 -498.5q0 -336 -186.5 -532t-491.5 -196q-299 0 -474 200t-175 503zM401 686q0 -205 91.5 -333t245 -128t242.5 131t89 338q0 195 -89 328t-244.5 133t-245 -131t-89.5 -338zM592 1456l172 252h328l-250 -252 h-250z" />
<glyph unicode="&#xd4;" horiz-adv-x="1468" d="M72 680q0 315 185 519t486 204q307 0 481.5 -199.5t174.5 -498.5q0 -336 -186.5 -532t-491.5 -196q-299 0 -474 200t-175 503zM401 686q0 -205 91.5 -333t245 -128t242.5 131t89 338q0 195 -89 328t-244.5 133t-245 -131t-89.5 -338zM414 1456l204 252h234l207 -252h-219 l-103 127h-4l-102 -127h-217z" />
<glyph unicode="&#xd5;" horiz-adv-x="1468" d="M72 680q0 315 185 519t486 204q307 0 481.5 -199.5t174.5 -498.5q0 -336 -186.5 -532t-491.5 -196q-299 0 -474 200t-175 503zM401 686q0 -205 91.5 -333t245 -128t242.5 131t89 338q0 195 -89 328t-244.5 133t-245 -131t-89.5 -338zM449 1464q-2 127 39.5 193.5 t117.5 66.5q63 0 131 -41q66 -39 90 -38q27 0 39.5 19t16.5 69h141q6 -256 -162 -256q-63 0 -133 39q-74 37 -88 36q-43 0 -49 -88h-143z" />
<glyph unicode="&#xd6;" horiz-adv-x="1468" d="M72 680q0 315 185 519t486 204q307 0 481.5 -199.5t174.5 -498.5q0 -336 -186.5 -532t-491.5 -196q-299 0 -474 200t-175 503zM383 1599q0 59 42 100.5t101 41.5q57 0 95 -41t38 -101q0 -57 -38.5 -98t-96.5 -41h-2q-57 0 -98 41t-41 98zM401 686q0 -205 91.5 -333 t245 -128t242.5 131t89 338q0 195 -89 328t-244.5 133t-245 -131t-89.5 -338zM809 1599q0 59 40 100.5t101 41.5q57 0 97 -41t40 -101q0 -57 -39.5 -98t-97.5 -41h-2q-59 0 -99 41t-40 98z" />
<glyph unicode="&#xd7;" horiz-adv-x="1220" d="M82 137l393 402l-393 401l133 137l395 -403l396 403l133 -137l-394 -401l394 -402l-135 -137l-394 401l-393 -401z" />
<glyph unicode="&#xd8;" horiz-adv-x="1468" d="M72 688q0 309 185 512t480 203q172 0 305 -72l113 166l178 -119l-116 -172q182 -195 182 -508q0 -332 -185.5 -526.5t-478.5 -194.5q-162 0 -295 70l-125 -182l-168 131l115 174q-190 201 -190 518zM385 690q0 -133 53 -252h2l457 670q-70 51 -160 51q-164 0 -258 -130 t-94 -339zM584 268q63 -47 151 -47q162 0 256 130t94 343q0 117 -45 234l-6 2z" />
<glyph unicode="&#xd9;" horiz-adv-x="1396" d="M133 610v770h313v-794q0 -176 64.5 -267.5t185.5 -91.5q254 0 254 359v794h312v-774q0 -313 -149.5 -471t-426.5 -158q-553 0 -553 633zM354 1706h328l174 -248h-250z" />
<glyph unicode="&#xda;" horiz-adv-x="1396" d="M133 610v770h313v-794q0 -176 64.5 -267.5t185.5 -91.5q254 0 254 359v794h312v-774q0 -313 -149.5 -471t-426.5 -158q-553 0 -553 633zM541 1454l172 252h327l-249 -252h-250z" />
<glyph unicode="&#xdb;" horiz-adv-x="1396" d="M133 610v770h313v-794q0 -176 64.5 -267.5t185.5 -91.5q254 0 254 359v794h312v-774q0 -313 -149.5 -471t-426.5 -158q-553 0 -553 633zM397 1454l205 252h234l206 -252h-219l-102 127h-4l-103 -127h-217z" />
<glyph unicode="&#xdc;" horiz-adv-x="1396" d="M133 610v770h313v-794q0 -176 64.5 -267.5t185.5 -91.5q254 0 254 359v794h312v-774q0 -313 -149.5 -471t-426.5 -158q-553 0 -553 633zM358 1599q0 59 42 100.5t102 41.5q57 0 95 -41t38 -101q0 -57 -39 -98t-96 -41h-2q-57 0 -98.5 41t-41.5 98zM784 1599 q0 59 40 100.5t102 41.5q57 0 97 -41t40 -101q0 -57 -40 -98t-97 -41h-2q-59 0 -99.5 41t-40.5 98z" />
<glyph unicode="&#xdd;" horiz-adv-x="1234" d="M18 1380h357l141 -331q45 -104 107 -265h4q33 94 104 265l139 331h351l-455 -805v-575h-311v565zM481 1450l172 252h328l-250 -252h-250z" />
<glyph unicode="&#xde;" horiz-adv-x="1187" d="M135 0v1380h309v-247q55 6 168 6q250 0 379 -109q133 -113 133 -299q0 -242 -150.5 -356.5t-389.5 -114.5q-72 0 -140 10v-270h-309zM444 514q51 -10 127 -10q121 0 183.5 55t62.5 148q0 94 -62.5 145t-174.5 51q-80 0 -136 -10v-379z" />
<glyph unicode="&#xdf;" horiz-adv-x="1228" d="M125 0v883q0 319 158 465q135 129 368 129q190 0 315.5 -104.5t125.5 -274.5q0 -106 -50 -168q-117 -57 -116 -142q0 -66 69 -137q51 -55 77 -84.5t55.5 -97.5t29.5 -139q0 -160 -109.5 -256.5t-302.5 -96.5q-139 0 -219 33l39 230q66 -29 142 -29q63 0 100 29.5t37 76.5 q0 63 -74 140q-51 51 -74.5 79.5t-53.5 89t-30 122.5q0 166 166 253q14 39 15 72q0 72 -44 119t-116 47q-197 0 -197 -330v-909h-311z" />
<glyph unicode="&#xe0;" horiz-adv-x="1081" d="M59 285q0 190 157 287.5t431 95.5v14q0 129 -182 129q-156 0 -277 -76l-57 201q158 88 389 88q233 0 337 -119t104 -313v-348q0 -166 14 -244h-281l-18 100h-6q-100 -123 -287 -123q-145 0 -234.5 91.5t-89.5 216.5zM205 1438h287l176 -312h-213zM367 315 q0 -57 33.5 -87.5t88.5 -30.5q57 0 101.5 32.5t60.5 81.5q6 25 6 54v108q-290 4 -290 -158z" />
<glyph unicode="&#xe1;" horiz-adv-x="1081" d="M59 285q0 190 157 287.5t431 95.5v14q0 129 -182 129q-156 0 -277 -76l-57 201q158 88 389 88q233 0 337 -119t104 -313v-348q0 -166 14 -244h-281l-18 100h-6q-100 -123 -287 -123q-145 0 -234.5 91.5t-89.5 216.5zM367 315q0 -57 33.5 -87.5t88.5 -30.5 q57 0 101.5 32.5t60.5 81.5q6 25 6 54v108q-290 4 -290 -158zM399 1126l176 312h289l-250 -312h-215z" />
<glyph unicode="&#xe2;" horiz-adv-x="1081" d="M59 285q0 190 157 287.5t431 95.5v14q0 129 -182 129q-156 0 -277 -76l-57 201q158 88 389 88q233 0 337 -119t104 -313v-348q0 -166 14 -244h-281l-18 100h-6q-100 -123 -287 -123q-145 0 -234.5 91.5t-89.5 216.5zM225 1126l203 312h211l203 -312h-203l-104 179h-5 l-102 -179h-203zM367 315q0 -57 33.5 -87.5t88.5 -30.5q57 0 101.5 32.5t60.5 81.5q6 25 6 54v108q-290 4 -290 -158z" />
<glyph unicode="&#xe3;" horiz-adv-x="1081" d="M59 285q0 190 157 287.5t431 95.5v14q0 129 -182 129q-156 0 -277 -76l-57 201q158 88 389 88q233 0 337 -119t104 -313v-348q0 -166 14 -244h-281l-18 100h-6q-100 -123 -287 -123q-145 0 -234.5 91.5t-89.5 216.5zM231 1143q-4 127 41 197.5t127 70.5q51 0 133 -41 q66 -41 86 -41q25 0 37.5 19.5t16.5 72.5h143q8 -264 -168 -264q-55 0 -141 45q-59 33 -78 33q-47 0 -49 -92h-148zM367 315q0 -57 33.5 -87.5t88.5 -30.5q57 0 101.5 32.5t60.5 81.5q6 25 6 54v108q-290 4 -290 -158z" />
<glyph unicode="&#xe4;" horiz-adv-x="1081" d="M59 285q0 190 157 287.5t431 95.5v14q0 129 -182 129q-156 0 -277 -76l-57 201q158 88 389 88q233 0 337 -119t104 -313v-348q0 -166 14 -244h-281l-18 100h-6q-100 -123 -287 -123q-145 0 -234.5 91.5t-89.5 216.5zM180 1284q0 61 43 103.5t105 42.5q59 0 99 -41 t40 -105q0 -59 -40 -101t-99 -42h-2q-61 0 -103.5 42t-42.5 101zM367 315q0 -57 33.5 -87.5t88.5 -30.5q57 0 101.5 32.5t60.5 81.5q6 25 6 54v108q-290 4 -290 -158zM612 1284q0 63 42 104.5t104 41.5q59 0 100 -41t41 -105q0 -59 -40 -101t-101 -42h-4q-59 0 -100.5 42 t-41.5 101z" />
<glyph unicode="&#xe5;" horiz-adv-x="1081" d="M59 285q0 190 157 287.5t431 95.5v14q0 129 -182 129q-156 0 -277 -76l-57 201q158 88 389 88q233 0 337 -119t104 -313v-348q0 -166 14 -244h-281l-18 100h-6q-100 -123 -287 -123q-145 0 -234.5 91.5t-89.5 216.5zM307 1300q0 90 64.5 148.5t175.5 58.5q109 0 169 -57 t60 -147q0 -86 -63.5 -142.5t-167.5 -56.5q-106 0 -172 56t-66 140zM367 315q0 -57 33.5 -87.5t88.5 -30.5q57 0 101.5 32.5t60.5 81.5q6 25 6 54v108q-290 4 -290 -158zM451 1303q0 -37 25.5 -67t66.5 -30q45 0 69.5 29t24.5 70t-25.5 70.5t-70.5 29.5q-43 0 -66.5 -30.5 t-23.5 -71.5z" />
<glyph unicode="&#xe6;" horiz-adv-x="1644" d="M59 291q0 180 160 275.5t432 92.5v29q0 20 -13 45t-59.5 50.5t-117.5 25.5q-141 0 -268 -76l-62 197q170 94 354 94q238 0 330 -162h6q123 162 342 162q207 0 313.5 -147.5t106.5 -350.5q0 -20 -3 -60t-3 -50h-635q4 -94 78 -150.5t192 -56.5q154 0 281 53l43 -209 q-145 -76 -369 -76q-127 0 -229 47.5t-152 131.5h-8q-131 -178 -372 -179q-160 0 -253.5 90.5t-93.5 223.5zM365 313q0 -55 36.5 -85.5t92.5 -30.5q111 0 157 104q8 16 8 64v104q-133 2 -213.5 -37t-80.5 -119zM940 625h356q2 70 -36.5 133t-133.5 63q-88 0 -136 -63 t-50 -133z" />
<glyph unicode="&#xe7;" horiz-adv-x="923" d="M68 492q0 229 151.5 380.5t421.5 151.5q133 0 238 -39l-50 -231q-70 31 -174 30q-123 0 -196.5 -78.5t-71.5 -201.5q0 -133 78 -207t197 -74q102 0 178 33l37 -231q-78 -39 -230 -45l-39 -70q63 -14 106.5 -57t43.5 -109q0 -98 -72 -144t-174 -46q-111 0 -174 38l41 127 q47 -29 115 -28q74 0 73 51q0 59 -161 76l81 172q-197 29 -308 162t-111 340z" />
<glyph unicode="&#xe8;" horiz-adv-x="1081" d="M68 489q0 133 51 251t170 201t284 83q225 0 336 -145.5t111 -354.5q0 -66 -10 -123h-645q8 -92 86.5 -141t195.5 -49q147 0 277 41l41 -211q-158 -63 -363 -64q-252 0 -393 137t-141 375zM246 1438h286l177 -312h-213zM362 614h369q0 76 -40 139.5t-136 63.5 q-88 0 -136.5 -62.5t-56.5 -140.5z" />
<glyph unicode="&#xe9;" horiz-adv-x="1081" d="M68 489q0 133 51 251t170 201t284 83q225 0 336 -145.5t111 -354.5q0 -66 -10 -123h-645q8 -92 86.5 -141t195.5 -49q147 0 277 41l41 -211q-158 -63 -363 -64q-252 0 -393 137t-141 375zM362 614h369q0 76 -40 139.5t-136 63.5q-88 0 -136.5 -62.5t-56.5 -140.5z M438 1126l176 312h289l-250 -312h-215z" />
<glyph unicode="&#xea;" horiz-adv-x="1081" d="M68 489q0 133 51 251t170 201t284 83q225 0 336 -145.5t111 -354.5q0 -66 -10 -123h-645q8 -92 86.5 -141t195.5 -49q147 0 277 41l41 -211q-158 -63 -363 -64q-252 0 -393 137t-141 375zM254 1126l203 312h211l202 -312h-202l-105 179h-4l-102 -179h-203zM362 614h369 q0 76 -40 139.5t-136 63.5q-88 0 -136.5 -62.5t-56.5 -140.5z" />
<glyph unicode="&#xeb;" horiz-adv-x="1081" d="M68 489q0 133 51 251t170 201t284 83q225 0 336 -145.5t111 -354.5q0 -66 -10 -123h-645q8 -92 86.5 -141t195.5 -49q147 0 277 41l41 -211q-158 -63 -363 -64q-252 0 -393 137t-141 375zM213 1284q0 61 43 103.5t104 42.5q59 0 99.5 -41t40.5 -105q0 -59 -40 -101 t-100 -42h-2q-61 0 -103 42t-42 101zM362 614h369q0 76 -40 139.5t-136 63.5q-88 0 -136.5 -62.5t-56.5 -140.5zM645 1284q0 63 42 104.5t104 41.5q59 0 100 -41t41 -105q0 -59 -40 -101t-101 -42h-5q-59 0 -100 42t-41 101z" />
<glyph unicode="&#xec;" horiz-adv-x="561" d="M-61 1438h286l176 -312h-213zM125 0v1001h311v-1001h-311z" />
<glyph unicode="&#xed;" horiz-adv-x="561" d="M125 0v1001h311v-1001h-311zM147 1126l177 312h288l-250 -312h-215z" />
<glyph unicode="&#xee;" horiz-adv-x="561" d="M-27 1126l203 312h211l203 -312h-203l-104 179h-4l-103 -179h-203zM125 0v1001h311v-1001h-311z" />
<glyph unicode="&#xef;" horiz-adv-x="561" d="M-80 1284q0 61 43 103.5t105 42.5q59 0 99 -41t40 -105q0 -59 -40 -101t-99 -42h-2q-61 0 -103.5 42t-42.5 101zM125 0v1001h311v-1001h-311zM352 1284q0 63 42 104.5t104 41.5q59 0 100 -41t41 -105q0 -59 -40 -101t-101 -42h-4q-59 0 -100.5 42t-41.5 101z" />
<glyph unicode="&#xf0;" horiz-adv-x="1175" d="M68 485q0 215 137 347.5t338 136.5q82 4 145 -39l4 4q-78 104 -178 172l-295 -127l-55 123l215 96q-90 55 -193 96l136 176q166 -59 323 -163l283 123l61 -121l-217 -92q164 -129 252 -310q84 -162 84 -381q0 -266 -152.5 -407.5t-369.5 -141.5q-225 0 -371.5 138.5 t-146.5 369.5zM389 487q0 -123 53.5 -204.5t145.5 -81.5h2q94 0 145 80.5t51 214.5q0 156 -49 217q-53 66 -145 65q-104 0 -153.5 -89t-49.5 -202z" />
<glyph unicode="&#xf1;" horiz-adv-x="1200" d="M117 1001h270l14 -137h7q39 61 118.5 110.5t190.5 49.5q162 0 260 -108.5t98 -321.5v-594h-311v555q0 217 -158 217q-59 0 -99 -33.5t-58 -83.5q-12 -31 -13 -77v-578h-311v682q0 143 -8 319zM311 1143q-4 127 41 197.5t127 70.5q51 0 133 -41q66 -41 86 -41 q25 0 37.5 19.5t16.5 72.5h143q8 -264 -168 -264q-55 0 -141 45q-59 33 -78 33q-45 0 -49 -92h-148z" />
<glyph unicode="&#xf2;" horiz-adv-x="1181" d="M68 494q0 242 146 386t388 144q229 0 370.5 -142.5t141.5 -369.5q0 -258 -154.5 -396.5t-373.5 -138.5q-225 0 -371.5 139.5t-146.5 377.5zM272 1438h287l176 -312h-213zM389 502q0 -133 54.5 -217t150.5 -84q90 0 144.5 83t54.5 218q0 125 -50.5 213t-148.5 88 q-104 0 -154.5 -88t-50.5 -213z" />
<glyph unicode="&#xf3;" horiz-adv-x="1181" d="M68 494q0 242 146 386t388 144q229 0 370.5 -142.5t141.5 -369.5q0 -258 -154.5 -396.5t-373.5 -138.5q-225 0 -371.5 139.5t-146.5 377.5zM389 502q0 -133 54.5 -217t150.5 -84q90 0 144.5 83t54.5 218q0 125 -50.5 213t-148.5 88q-104 0 -154.5 -88t-50.5 -213z M453 1126l176 312h289l-250 -312h-215z" />
<glyph unicode="&#xf4;" horiz-adv-x="1181" d="M68 494q0 242 146 386t388 144q229 0 370.5 -142.5t141.5 -369.5q0 -258 -154.5 -396.5t-373.5 -138.5q-225 0 -371.5 139.5t-146.5 377.5zM283 1126l202 312h211l203 -312h-203l-104 179h-4l-103 -179h-202zM389 502q0 -133 54.5 -217t150.5 -84q90 0 144.5 83t54.5 218 q0 125 -50.5 213t-148.5 88q-104 0 -154.5 -88t-50.5 -213z" />
<glyph unicode="&#xf5;" horiz-adv-x="1181" d="M68 494q0 242 146 386t388 144q229 0 370.5 -142.5t141.5 -369.5q0 -258 -154.5 -396.5t-373.5 -138.5q-225 0 -371.5 139.5t-146.5 377.5zM299 1143q-4 127 41 197.5t127 70.5q51 0 133 -41q66 -41 86 -41q25 0 37 19.5t16 72.5h144q8 -264 -168 -264q-55 0 -142 45 q-59 33 -77 33q-45 0 -50 -92h-147zM389 502q0 -133 54.5 -217t150.5 -84q90 0 144.5 83t54.5 218q0 125 -50.5 213t-148.5 88q-104 0 -154.5 -88t-50.5 -213z" />
<glyph unicode="&#xf6;" horiz-adv-x="1181" d="M68 494q0 242 146 386t388 144q229 0 370.5 -142.5t141.5 -369.5q0 -258 -154.5 -396.5t-373.5 -138.5q-225 0 -371.5 139.5t-146.5 377.5zM229 1284q0 61 43 103.5t105 42.5q59 0 99 -41t40 -105q0 -59 -40 -101t-99 -42h-2q-61 0 -103.5 42t-42.5 101zM389 502 q0 -133 54.5 -217t150.5 -84q90 0 144.5 83t54.5 218q0 125 -50.5 213t-148.5 88q-104 0 -154.5 -88t-50.5 -213zM662 1284q0 63 41.5 104.5t103.5 41.5q59 0 100 -41t41 -105q0 -59 -40 -101t-101 -42h-4q-59 0 -100 42t-41 101z" />
<glyph unicode="&#xf7;" horiz-adv-x="1220" d="M82 451v192h1057v-192h-1057zM461 186.5q0 67.5 42 109.5t107 42q68 0 108 -41t42 -111q0 -68 -41 -109.5t-109 -41.5h-2q-66 0 -106.5 42t-40.5 109.5zM461 905q0 70 41 112t108.5 42t107.5 -41t42 -113q0 -68 -41 -108.5t-109 -40.5h-2q-66 0 -106.5 41.5t-40.5 107.5z " />
<glyph unicode="&#xf8;" horiz-adv-x="1181" d="M68 500q0 236 144 380t378 144h2q141 0 242 -53l96 141l108 -76l-92 -137q168 -145 168 -395q0 -252 -154.5 -389.5t-367.5 -137.5q-137 0 -238 54l-100 -146l-102 82l90 133q-174 142 -174 400zM367 502q0 -98 36 -160l5 -2l292 426q-51 37 -110 37q-113 0 -168 -90 t-55 -211zM485 238q39 -37 105 -37q102 0 162.5 80.5t60.5 214.5q0 92 -31 155l-6 2z" />
<glyph unicode="&#xf9;" horiz-adv-x="1193" d="M121 414v587h313v-538q0 -233 156 -234q111 0 155 109q10 23 11 68v595h313v-679q0 -154 8 -322h-270l-14 141h-7q-104 -164 -313 -164q-162 0 -257 108t-95 329zM270 1438h287l176 -312h-213z" />
<glyph unicode="&#xfa;" horiz-adv-x="1193" d="M121 414v587h313v-538q0 -233 156 -234q111 0 155 109q10 23 11 68v595h313v-679q0 -154 8 -322h-270l-14 141h-7q-104 -164 -313 -164q-162 0 -257 108t-95 329zM469 1126l176 312h289l-250 -312h-215z" />
<glyph unicode="&#xfb;" horiz-adv-x="1193" d="M121 414v587h313v-538q0 -233 156 -234q111 0 155 109q10 23 11 68v595h313v-679q0 -154 8 -322h-270l-14 141h-7q-104 -164 -313 -164q-162 0 -257 108t-95 329zM291 1126l203 312h211l202 -312h-202l-105 179h-4l-102 -179h-203z" />
<glyph unicode="&#xfc;" horiz-adv-x="1193" d="M121 414v587h313v-538q0 -233 156 -234q111 0 155 109q10 23 11 68v595h313v-679q0 -154 8 -322h-270l-14 141h-7q-104 -164 -313 -164q-162 0 -257 108t-95 329zM244 1284q0 61 43 103.5t104 42.5q59 0 99 -41t40 -105q0 -59 -39.5 -101t-99.5 -42h-2q-61 0 -103 42 t-42 101zM676 1284q0 63 42 104.5t103 41.5q59 0 100.5 -41t41.5 -105q0 -59 -40 -101t-102 -42h-4q-59 0 -100 42t-41 101z" />
<glyph unicode="&#xfd;" horiz-adv-x="1071" d="M12 1001h346l150 -491q37 -137 49 -186h6q8 31 23.5 98t21.5 88l123 491h334l-234 -659q-102 -287 -183 -432.5t-169 -224.5q-133 -115 -301 -138l-65 265q63 10 135 53q78 41 129 125q16 23 16 45t-14 51zM430 1126l176 312h289l-250 -312h-215z" />
<glyph unicode="&#xfe;" horiz-adv-x="1224" d="M125 -406v1792h311v-507h4q98 145 299 145q170 4 293 -135t123 -379q0 -133 -41 -238.5t-107.5 -168t-144.5 -94.5t-157 -32q-176 0 -265 117h-4v-500h-311zM436 410q0 -57 29 -97q51 -96 162 -96q96 0 154.5 78t58.5 211q0 121 -55.5 197.5t-149.5 76.5 q-127 0 -178 -114q-20 -41 -21 -84v-172z" />
<glyph unicode="&#xff;" horiz-adv-x="1071" d="M12 1001h346l150 -491q37 -137 49 -186h6q8 31 23.5 98t21.5 88l123 491h334l-234 -659q-102 -287 -183 -432.5t-169 -224.5q-133 -115 -301 -138l-65 265q63 10 135 53q78 41 129 125q16 23 16 45t-14 51zM199 1284q0 61 43 103.5t104 42.5q59 0 99 -41t40 -105 q0 -59 -39.5 -101t-99.5 -42h-2q-61 0 -103 42t-42 101zM631 1284q0 63 42 104.5t103 41.5q59 0 100.5 -41t41.5 -105q0 -59 -40 -101t-102 -42h-4q-59 0 -100 42t-41 101z" />
<glyph unicode="&#x152;" horiz-adv-x="1916" d="M72 678q0 330 191.5 527.5t504.5 197.5q59 0 186 -10q102 -12 129 -13h725v-256h-538v-286h508v-254h-508v-328h567v-256h-778q-33 0 -127 -12q-117 -10 -168 -11q-227 0 -388 99.5t-232.5 254t-71.5 347.5zM401 690q-2 -209 109 -337t307 -128q86 0 141 25v876 q-61 29 -161 29q-170 0 -283 -123t-113 -342z" />
<glyph unicode="&#x153;" horiz-adv-x="1777" d="M68 500q0 236 142 380t368 144q111 0 206 -46t146 -132h4q119 178 348 178q152 0 254 -76t142 -184.5t40 -239.5q0 -43 -8 -116h-633q6 -90 83 -144.5t190 -54.5q137 0 278 53l43 -209q-137 -76 -364 -76q-248 0 -369 177h-6q-123 -176 -375 -177q-209 0 -349 141.5 t-140 381.5zM389 500q0 -131 53.5 -215t147.5 -84t145 80.5t51 220.5q0 127 -49 214t-143 87h-2q-106 0 -154.5 -89t-48.5 -214zM1073 616h357q2 76 -36 138.5t-139 62.5q-86 0 -133 -64.5t-49 -136.5z" />
<glyph unicode="&#x178;" horiz-adv-x="1234" d="M18 1380h357l141 -331q45 -104 107 -265h4q33 94 104 265l139 331h351l-455 -805v-575h-311v565zM283 1595q0 59 42 100.5t101 41.5q57 0 95 -41t38 -101q0 -57 -39 -98t-96 -41h-2q-57 0 -98 41t-41 98zM709 1595q0 59 39.5 100.5t101.5 41.5q57 0 97 -41t40 -101 q0 -57 -40 -98t-97 -41h-2q-59 0 -99 41t-40 98z" />
<glyph unicode="&#x2c6;" horiz-adv-x="614" d="M0 1126l203 312h211l202 -312h-202l-105 179h-4l-102 -179h-203z" />
<glyph unicode="&#x2dc;" horiz-adv-x="614" d="M16 1143q-4 127 41 197.5t127 70.5q51 0 133 -41q66 -41 86 -41q25 0 37.5 19.5t16.5 72.5h143q8 -264 -168 -264q-55 0 -141 45q-59 33 -78 33q-45 0 -49 -92h-148z" />
<glyph unicode="&#x2000;" horiz-adv-x="917" />
<glyph unicode="&#x2001;" horiz-adv-x="1837" />
<glyph unicode="&#x2002;" horiz-adv-x="917" />
<glyph unicode="&#x2003;" horiz-adv-x="1837" />
<glyph unicode="&#x2004;" horiz-adv-x="612" />
<glyph unicode="&#x2005;" horiz-adv-x="458" />
<glyph unicode="&#x2006;" horiz-adv-x="305" />
<glyph unicode="&#x2007;" horiz-adv-x="305" />
<glyph unicode="&#x2008;" horiz-adv-x="229" />
<glyph unicode="&#x2009;" horiz-adv-x="366" />
<glyph unicode="&#x200a;" horiz-adv-x="100" />
<glyph unicode="&#x2010;" horiz-adv-x="659" d="M61 434v209h537v-209h-537z" />
<glyph unicode="&#x2011;" horiz-adv-x="659" d="M61 434v209h537v-209h-537z" />
<glyph unicode="&#x2012;" horiz-adv-x="659" d="M61 434v209h537v-209h-537z" />
<glyph unicode="&#x2013;" horiz-adv-x="1024" d="M61 424v192h902v-192h-902z" />
<glyph unicode="&#x2014;" horiz-adv-x="2048" d="M61 424v192h1926v-192h-1926z" />
<glyph unicode="&#x2018;" horiz-adv-x="532" d="M55 846q100 319 246 555l188 16q-98 -268 -143 -551z" />
<glyph unicode="&#x2019;" horiz-adv-x="532" d="M53 846q102 297 142 553l292 18q-98 -307 -245 -553z" />
<glyph unicode="&#x201a;" horiz-adv-x="532" d="M33 -213q98 268 143 551l291 20q-100 -319 -246 -555z" />
<glyph unicode="&#x201c;" horiz-adv-x="929" d="M53 846q100 319 246 555l188 16q-98 -268 -143 -551zM453 846q100 319 245 555l189 16q-100 -285 -144 -551z" />
<glyph unicode="&#x201d;" horiz-adv-x="929" d="M51 846q102 293 144 553l290 18q-98 -307 -245 -553zM451 846q102 293 143 553l291 18q-102 -317 -246 -553z" />
<glyph unicode="&#x201e;" horiz-adv-x="940" d="M31 -213q98 268 143 551l291 20q-100 -319 -246 -555zM432 -213q100 285 143 551l291 20q-98 -307 -245 -555z" />
<glyph unicode="&#x2022;" horiz-adv-x="692" d="M80 535q-2 111 77 189.5t189.5 78.5t188 -78t77.5 -190.5t-76.5 -190.5t-189.5 -78h-2q-111 0 -187.5 77t-76.5 192z" />
<glyph unicode="&#x2026;" horiz-adv-x="2048" d="M158 166q0 84 51 137t133 53q80 0 131 -53t51 -137q0 -82 -51 -135.5t-133 -53.5h-2q-80 0 -130 53.5t-50 135.5zM840 166q0 82 52 136t132 54q82 0 132 -53t52 -137q0 -82 -51 -135.5t-133 -53.5h-2q-80 0 -131 53.5t-51 135.5zM1524 166q0 82 52 136t132 54 q82 0 132 -53t52 -137q0 -82 -51 -135.5t-133 -53.5h-2q-80 0 -131 53.5t-51 135.5z" />
<glyph unicode="&#x202f;" horiz-adv-x="366" />
<glyph unicode="&#x2039;" horiz-adv-x="552" d="M53 516l238 391h217l-244 -391l244 -391h-217z" />
<glyph unicode="&#x203a;" horiz-adv-x="552" d="M45 125l246 391l-246 391h215l240 -391l-240 -391h-215z" />
<glyph unicode="&#x205f;" horiz-adv-x="458" />
<glyph unicode="&#x20ac;" d="M10 477v146h113v34q0 10 1 31t1 31h-115v145h137q39 162 142 281q186 209 473 209q168 0 307 -62l-57 -233q-117 49 -228 49q-162 0 -252 -111q-43 -49 -65 -133h510v-145h-541q-2 -20 -2 -64v-32h543v-146h-514q20 -90 67 -143q92 -104 265 -105q131 0 233 54l49 -228 q-139 -78 -319 -78q-152 0 -283 60.5t-217 173.5q-88 111 -115 266h-133z" />
<glyph unicode="&#x2122;" horiz-adv-x="1331" d="M55 1243v137h488v-137h-160v-422h-170v422h-158zM584 821l34 559h263l37 -137q14 -55 32 -178h2q23 111 41 178l41 137h244l31 -559h-164l-10 246v102q0 72 -2 115h-11q-45 -207 -47 -217l-57 -236h-162l-51 238q-12 80 -35 215h-10q0 -90 -4 -217l-13 -246h-159z" />
<glyph unicode="&#xe000;" horiz-adv-x="1000" d="M0 1000h1000v-1000h-1000v1000z" />
<glyph unicode="&#xfb01;" horiz-adv-x="1204" d="M29 772v229h131v43q0 203 143 318t381 115q193 0 295 -62l-59 -235q-94 51 -228 51q-221 0 -221 -195v-35h608v-1001h-311v772h-295v-772h-313v772h-131z" />
<glyph unicode="&#xfb02;" horiz-adv-x="1204" d="M29 772v229h131v46q0 86 41 173t112 144q139 113 381 113q233 0 385 -84v-1393h-311v1225q-41 20 -119 20q-90 0 -134 -56t-44 -147v-41h180v-229h-178v-772h-313v772h-131z" />
<glyph unicode="&#xfb03;" horiz-adv-x="1841" d="M29 772v229h131v19q0 203 129 323q111 104 301 105q96 0 174 -33l-70 -223q-41 18 -88 18q-57 0 -92 -34q-43 -43 -43 -146v-29h328v43q0 203 143 318t379 115q170 0 281 -54l-68 -233q-90 41 -205 41q-221 0 -221 -195v-35h610v-1001h-313v772h-295v-772h-311v772h-326 v-772h-313v772h-131z" />
<glyph unicode="&#xfb04;" horiz-adv-x="1841" d="M29 772v229h131v15q0 205 127 319q119 113 325 113q80 0 156 -27l-66 -229q-39 18 -92 18q-61 0 -94 -36q-45 -43 -45 -142v-31h328v46q0 86 40 173t111 144q141 113 381 113q236 0 387 -84v-1393h-313v1225q-37 20 -117 20q-90 0 -135 -56t-45 -147v-41h182v-229h-180 v-772h-311v772h-326v-772h-313v772h-131z" />
</font>
</defs>
</svg>
